<svg width="27" height="27" viewBox="0 0 27 27" fill="none" xmlns="http://www.w3.org/2000/svg">
<path fill-rule="evenodd" clip-rule="evenodd" d="M2.10443 10.4389C2.32531 9.51814 2.65634 8.64076 3.08267 7.82173C4.29506 9.03158 6.25044 9.02763 7.45798 7.80988C8.66945 6.58817 8.66945 4.60738 7.45798 3.38567C7.42275 3.35014 7.38688 3.31565 7.35042 3.28219C8.19141 2.77731 9.10244 2.3787 10.0653 2.10474C10.0612 2.17037 10.0592 2.23655 10.0592 2.30321C10.0592 4.03097 11.4481 5.4316 13.1613 5.4316C14.8746 5.4316 16.2635 4.03097 16.2635 2.30321C16.2635 2.23671 16.2614 2.17069 16.2574 2.10521C17.2209 2.37953 18.1325 2.77866 18.974 3.28421C18.9372 3.31792 18.901 3.35269 18.8655 3.38851C17.654 4.61022 17.654 6.59101 18.8655 7.81272C20.0728 9.03025 22.0277 9.03441 23.2402 7.82522C23.6656 8.64327 23.996 9.51949 24.2166 10.439C22.5557 10.4989 21.2274 11.8757 21.2274 13.5653C21.2274 15.1762 22.4347 16.5027 23.9866 16.6748C23.7209 17.5045 23.364 18.2928 22.9278 19.0278C21.7121 18.0998 19.9733 18.1947 18.8647 19.3127C17.7943 20.3921 17.6697 22.0641 18.4908 23.2816C17.7702 23.6678 17.0036 23.9781 16.2014 24.202C15.9139 22.7741 14.6621 21.6994 13.1613 21.6994C11.6604 21.6994 10.4085 22.7743 10.1212 24.2024C9.31958 23.9788 8.55353 23.6689 7.83345 23.2833C8.65372 22.066 8.52882 20.3946 7.45875 19.3155C6.35002 18.1974 4.61084 18.1026 3.39517 19.0311C2.95814 18.2952 2.60058 17.5058 2.33445 16.675C3.88706 16.5035 5.09514 15.1767 5.09514 13.5653C5.09514 11.8752 3.76608 10.4981 2.10443 10.4389ZM13.1613 19.4753C16.3596 19.4753 18.9523 16.8826 18.9523 13.6843C18.9523 10.486 16.3596 7.89334 13.1613 7.89334C9.96307 7.89334 7.37036 10.486 7.37036 13.6843C7.37036 16.8826 9.96307 19.4753 13.1613 19.4753Z" fill="#191849"/>
</svg>
