<svg width="158" height="35" viewBox="0 0 158 35" fill="none" xmlns="http://www.w3.org/2000/svg">
<path d="M39.4641 11.5138H35.1834V9.94025H45.5039V11.5138H41.2365V22.6054H39.4716L39.4641 11.5138Z" fill="#1D1D1B"/>
<path d="M55.7903 22.6054L53.0986 18.7176C52.7657 18.7425 52.5046 18.754 52.3155 18.754H49.2322V22.6054H47.4484V9.94025H52.3155C53.9309 9.94025 55.202 10.3324 56.1289 11.1166C57.0558 11.9008 57.5192 12.9792 57.5192 14.3519C57.5443 15.2387 57.2949 16.1111 56.8061 16.8466C56.3042 17.5536 55.5922 18.0789 54.7745 18.3453L57.733 22.5958L55.7903 22.6054ZM54.8445 16.4762C55.4385 15.9811 55.7354 15.2775 55.7354 14.3654C55.7354 13.4532 55.4385 12.7496 54.8445 12.2545C54.2506 11.7607 53.3893 11.5138 52.2606 11.5138H49.2341V17.217H52.2606C53.3905 17.217 54.2556 16.9701 54.8559 16.4762H54.8445Z" fill="#1D1D1B"/>
<path d="M66.5099 13.9086C67.206 14.5585 67.5534 15.5289 67.5522 16.8197V22.6054H65.9311V21.3389C65.6342 21.7953 65.2092 22.1509 64.711 22.3598C64.1152 22.6084 63.4749 22.7287 62.8308 22.7128C61.7715 22.7128 60.9247 22.457 60.2904 21.9453C59.9958 21.6977 59.7579 21.388 59.5932 21.0377C59.4285 20.6875 59.341 20.3051 59.3367 19.917C59.3323 19.529 59.4114 19.1446 59.5682 18.7907C59.7251 18.4368 59.956 18.1217 60.245 17.8675C60.8515 17.3557 61.8144 17.0999 63.1334 17.0999H65.8422V16.7468C65.8422 16.0009 65.6284 15.4253 65.2009 15.0197C64.7734 14.6142 64.1429 14.4152 63.3094 14.4229C62.7493 14.4259 62.1938 14.5239 61.6656 14.7127C61.1725 14.8762 60.7133 15.1306 60.3112 15.463L59.6037 14.1619C60.1227 13.7441 60.7161 13.4314 61.3516 13.2408C62.0507 13.0265 62.7776 12.9198 63.508 12.9242C64.8132 12.9293 65.8138 13.2575 66.5099 13.9086ZM64.8075 20.932C65.2803 20.6412 65.6444 20.199 65.8422 19.6751V18.3318H63.2034C61.7545 18.3318 61.03 18.8263 61.03 19.8152C61.0225 20.0364 61.0691 20.256 61.1654 20.4545C61.2618 20.653 61.405 20.8243 61.5823 20.9532C61.9518 21.232 62.4626 21.3708 63.1145 21.3696C63.7081 21.3874 64.2947 21.2358 64.8075 20.932Z" fill="#1D1D1B"/>
<path d="M78.6292 13.9893C79.3367 14.6954 79.6904 15.7291 79.6904 17.0903V22.6054H77.9785V17.2899C77.9785 16.3611 77.7591 15.662 77.3203 15.1924C76.8814 14.7229 76.2509 14.4875 75.4287 14.4863C74.5018 14.4863 73.771 14.7607 73.2364 15.3095C72.7017 15.8583 72.4343 16.6445 72.4343 17.6679V22.6054H70.7224V13.0221H72.3624V14.469C72.7169 13.9658 73.2013 13.5714 73.7622 13.3291C74.3956 13.0551 75.0788 12.9197 75.7673 12.9319C76.9678 12.9319 77.9218 13.2844 78.6292 13.9893Z" fill="#1D1D1B"/>
<path d="M83.3431 22.3962C82.739 22.2391 82.1702 21.9661 81.6672 21.5922L82.3803 20.2182C82.8421 20.5421 83.3534 20.7865 83.8936 20.9416C84.4776 21.1206 85.0843 21.2118 85.6943 21.2122C87.1899 21.2122 87.9384 20.7785 87.9396 19.9112C87.9453 19.7807 87.9209 19.6506 87.8683 19.5314C87.8158 19.4121 87.7366 19.3069 87.637 19.2242C87.4146 19.0459 87.1563 18.9194 86.8803 18.8538C86.5777 18.7758 86.147 18.6881 85.5884 18.5909C84.9585 18.5001 84.3363 18.3609 83.7271 18.1745C83.2531 18.0233 82.8261 17.7495 82.4881 17.38C82.1438 17.0065 81.9717 16.482 81.9717 15.8065C81.9633 15.3955 82.0567 14.989 82.2434 14.6242C82.4302 14.2594 82.7042 13.948 83.0405 13.7187C83.7529 13.1954 84.7095 12.9332 85.91 12.9319C86.5475 12.9329 87.1825 13.0115 87.8015 13.166C88.3487 13.2894 88.8721 13.5034 89.3507 13.7993L88.6206 15.1732C87.8041 14.6551 86.8557 14.3915 85.8929 14.4152C85.1685 14.4152 84.6161 14.5342 84.2359 14.776C84.0647 14.869 83.9215 15.0073 83.8216 15.1762C83.7216 15.3452 83.6687 15.5385 83.6685 15.7355C83.662 15.8754 83.6873 16.0149 83.7424 16.1433C83.7975 16.2718 83.8809 16.3856 83.9862 16.4762C84.2191 16.6662 84.4903 16.8019 84.7807 16.8734C85.0947 16.9579 85.5361 17.0545 86.1048 17.1632C86.7311 17.2638 87.3503 17.4054 87.9585 17.5873C88.4185 17.7327 88.8332 17.9973 89.1616 18.3549C89.4932 18.7182 89.6591 19.2248 89.6591 19.8747C89.6671 20.2862 89.5706 20.6928 89.3787 21.0555C89.1869 21.4181 88.9063 21.7246 88.5638 21.9453C87.8337 22.457 86.8387 22.7128 85.5789 22.7128C84.8226 22.7163 84.0696 22.6097 83.3431 22.3962Z" fill="#1D1D1B"/>
<path d="M93.7166 12.1912V13.0221H96.4707V14.4498H93.7506V22.6054H92.0482V14.4498H90.4365V13.0221H92.0406V12.172C92.0406 11.2202 92.3136 10.4667 92.8597 9.91145C93.4057 9.35623 94.1724 9.07926 95.1598 9.08054C95.5209 9.07797 95.8806 9.12641 96.2286 9.22446C96.5362 9.30942 96.8259 9.45054 97.0836 9.64088L96.5672 10.9611C96.1885 10.6635 95.7221 10.504 95.2431 10.5083C94.2254 10.5083 93.7166 11.0692 93.7166 12.1912Z" fill="#1D1D1B"/>
<path d="M106.441 18.3914H98.7765C98.8177 18.7872 98.9359 19.1707 99.1243 19.5199C99.3126 19.869 99.5673 20.1768 99.8736 20.4255C100.535 20.9505 101.359 21.2223 102.198 21.1931C103.333 21.1931 104.242 20.8093 104.926 20.0417L105.872 21.1624C105.439 21.6703 104.892 22.0652 104.277 22.3137C103.507 22.6104 102.684 22.7433 101.861 22.7044C101.038 22.6654 100.231 22.4554 99.4915 22.0873C98.7416 21.6925 98.1197 21.0869 97.7002 20.343C97.2718 19.5711 97.0538 18.6975 97.0684 17.8118C97.0556 16.9341 97.2674 16.068 97.6831 15.298C98.0795 14.5671 98.6691 13.963 99.3855 13.5537C100.128 13.1315 100.967 12.9163 101.818 12.93C102.661 12.917 103.493 13.133 104.226 13.5556C104.928 13.9689 105.502 14.5731 105.883 15.2999C106.291 16.0915 106.497 16.9744 106.481 17.8675C106.477 17.9999 106.464 18.1745 106.441 18.3914ZM99.7487 15.1598C99.1916 15.6764 98.8449 16.3854 98.7765 17.1479H104.829C104.762 16.3869 104.418 15.6785 103.865 15.1598C103.289 14.6663 102.56 14.3954 101.807 14.3954C101.053 14.3954 100.324 14.6663 99.7487 15.1598Z" fill="#1D1D1B"/>
<path d="M111.806 13.3656C112.47 13.0583 113.196 12.9099 113.926 12.9319V14.6129C113.796 14.5997 113.665 14.5939 113.535 14.5956C112.608 14.5956 111.88 14.8758 111.352 15.4361C110.823 15.9965 110.559 16.7948 110.557 17.831V22.6054H108.855V13.0221H110.495V14.6321C110.788 14.0796 111.247 13.6361 111.806 13.3656Z" fill="#1D1D1B"/>
<path d="M7.78195 12.8878L14.1812 9.14001L20.5482 12.8686L14.149 16.6163L7.78195 12.8878Z" fill="#469FF9"/>
<path d="M15.6037 8.30721L22.0048 4.55756L28.3718 8.28802L21.9707 12.0358L15.6037 8.30721Z" fill="#F87171"/>
<path d="M0 8.3302L6.40111 4.58246L12.7663 8.31101L6.36706 12.0587L0 8.3302Z" fill="#AE46F9"/>
<path d="M7.82168 3.74966L14.2228 0L20.5899 3.72855L14.1887 7.47821L7.82168 3.74966Z" fill="#FDE68A"/>
<path d="M28.3737 8.28796V16.6163L21.9745 20.3659V12.0357L28.3737 8.28796Z" fill="#F87171"/>
<path d="M20.552 12.8686V21.1988L14.1509 24.9485V16.6163L20.552 12.8686Z" fill="#469FF9"/>
<path d="M28.3737 18.3395V26.6697L21.9745 30.4174V22.0872L28.3737 18.3395Z" fill="#F87171"/>
<path d="M20.552 22.9201V31.2503L14.1509 35V26.6698L20.552 22.9201Z" fill="#469FF9"/>
<path d="M0 8.28796V16.6163L6.36706 20.3659V12.0357L0 8.28796Z" fill="#AE46F9"/>
<path d="M7.78386 12.8686V21.1988L14.1509 24.9485V16.6163L7.78386 12.8686Z" fill="#469FF9"/>
<path d="M0 18.3395V26.6697L6.36706 30.4174V22.0872L0 18.3395Z" fill="#AE46F9"/>
<path d="M7.78386 22.9201V31.2503L14.1509 35V26.6698L7.78386 22.9201Z" fill="#469FF9"/>
</svg>
