<svg width="115" height="25" viewBox="0 0 115 25" fill="none" xmlns="http://www.w3.org/2000/svg">
<path d="M28.5967 8.22414H25.4948V7.10017H32.9733V8.22414H29.881V16.1467H28.6022L28.5967 8.22414Z" fill="#1D1D1B"/>
<path d="M40.4271 16.1467L38.4766 13.3697C38.2354 13.3875 38.0462 13.3957 37.9091 13.3957H35.6749V16.1467H34.3824V7.10017H37.9091C39.0797 7.10017 40.0008 7.38025 40.6725 7.94041C41.3441 8.50056 41.6799 9.27089 41.6799 10.2514C41.6981 10.8848 41.5174 11.5079 41.1632 12.0333C40.7995 12.5383 40.2835 12.9135 39.691 13.1038L41.8348 16.1399L40.4271 16.1467ZM39.7418 11.7687C40.1721 11.4151 40.3873 10.9125 40.3873 10.261C40.3873 9.60945 40.1721 9.10686 39.7418 8.75322C39.3114 8.4005 38.6872 8.22414 37.8694 8.22414H35.6763V12.2978H37.8694C38.6881 12.2978 39.315 12.1215 39.75 11.7687H39.7418Z" fill="#1D1D1B"/>
<path d="M48.1948 9.93476C48.6992 10.399 48.951 11.0921 48.9501 12.0141V16.1467H47.7754V15.2421C47.5602 15.5681 47.2523 15.8221 46.8913 15.9713C46.4595 16.1489 45.9956 16.2348 45.5288 16.2235C44.7612 16.2235 44.1476 16.0407 43.688 15.6752C43.4745 15.4984 43.3021 15.2772 43.1828 15.027C43.0635 14.7768 43 14.5036 42.9969 14.2265C42.9938 13.9493 43.051 13.6748 43.1647 13.422C43.2783 13.1691 43.4457 12.9441 43.6551 12.7625C44.0946 12.397 44.7923 12.2142 45.7481 12.2142H47.711V11.962C47.711 11.4293 47.5561 11.0181 47.2463 10.7284C46.9365 10.4387 46.4796 10.2966 45.8756 10.3021C45.4698 10.3042 45.0672 10.3742 44.6845 10.5091C44.3272 10.6259 43.9945 10.8076 43.7031 11.045L43.1904 10.1157C43.5665 9.81721 43.9965 9.59385 44.4569 9.45776C44.9636 9.30466 45.4903 9.22842 46.0195 9.23159C46.9653 9.23525 47.6904 9.46964 48.1948 9.93476ZM46.9612 14.9515C47.3038 14.7437 47.5676 14.4279 47.711 14.0537V13.0942H45.7988C44.7489 13.0942 44.2239 13.4474 44.2239 14.1537C44.2185 14.3117 44.2522 14.4686 44.3221 14.6104C44.3919 14.7522 44.4957 14.8745 44.6242 14.9666C44.8919 15.1658 45.262 15.2649 45.7344 15.264C46.1645 15.2767 46.5896 15.1684 46.9612 14.9515Z" fill="#1D1D1B"/>
<path d="M56.9768 9.99232C57.4894 10.4967 57.7458 11.2351 57.7458 12.2074V16.1467H56.5053V12.3499C56.5053 11.6865 56.3463 11.1871 56.0283 10.8517C55.7103 10.5164 55.2534 10.3482 54.6576 10.3473C53.986 10.3473 53.4564 10.5433 53.069 10.9354C52.6815 11.3274 52.4878 11.8889 52.4878 12.6199V16.1467H51.2473V9.3015H52.4357V10.335C52.6926 9.97556 53.0435 9.69385 53.45 9.52081C53.909 9.32506 54.4041 9.22838 54.9029 9.23707C55.7729 9.23707 56.4642 9.48882 56.9768 9.99232Z" fill="#1D1D1B"/>
<path d="M60.3926 15.9973C59.9549 15.8851 59.5426 15.6901 59.1782 15.423L59.6949 14.4416C60.0295 14.6729 60.4 14.8475 60.7915 14.9583C61.2146 15.0862 61.6543 15.1513 62.0963 15.1516C63.1801 15.1516 63.7224 14.8418 63.7233 14.2223C63.7274 14.1291 63.7097 14.0362 63.6717 13.951C63.6336 13.8658 63.5762 13.7907 63.504 13.7316C63.3429 13.6042 63.1557 13.5139 62.9558 13.467C62.7365 13.4113 62.4244 13.3487 62.0196 13.2792C61.5631 13.2144 61.1122 13.1149 60.6708 12.9818C60.3274 12.8738 60.018 12.6782 59.773 12.4143C59.5236 12.1475 59.3988 11.7728 59.3988 11.2904C59.3927 10.9968 59.4604 10.7064 59.5957 10.4459C59.731 10.1853 59.9296 9.9629 60.1733 9.79906C60.6896 9.42532 61.3827 9.23799 62.2526 9.23708C62.7145 9.23781 63.1747 9.29395 63.6233 9.4043C64.0198 9.49245 64.399 9.64527 64.7459 9.85663L64.2168 10.838C63.6252 10.4679 62.9379 10.2797 62.2403 10.2966C61.7153 10.2966 61.3151 10.3816 61.0396 10.5543C60.9155 10.6207 60.8117 10.7195 60.7393 10.8402C60.6669 10.9609 60.6285 11.0989 60.6283 11.2397C60.6237 11.3396 60.642 11.4392 60.682 11.531C60.7219 11.6227 60.7823 11.704 60.8586 11.7687C61.0273 11.9045 61.2239 12.0013 61.4343 12.0525C61.6618 12.1128 61.9817 12.1818 62.3938 12.2594C62.8476 12.3313 63.2963 12.4325 63.7371 12.5624C64.0704 12.6662 64.3708 12.8552 64.6088 13.1106C64.8491 13.3702 64.9693 13.732 64.9693 14.1962C64.9751 14.4901 64.9052 14.7806 64.7662 15.0396C64.6272 15.2987 64.4238 15.5176 64.1757 15.6752C63.6466 16.0407 62.9256 16.2235 62.0127 16.2235C61.4647 16.2259 60.919 16.1498 60.3926 15.9973Z" fill="#1D1D1B"/>
<path d="M67.9095 8.70799V9.3015H69.9052V10.3213H67.9341V16.1467H66.7005V10.3213H65.5327V9.3015H66.695V8.69428C66.695 8.01442 66.8929 7.4762 67.2885 7.07961C67.6842 6.68302 68.2398 6.48519 68.9553 6.4861C69.217 6.48426 69.4776 6.51886 69.7298 6.5889C69.9526 6.64959 70.1626 6.75038 70.3493 6.88634L69.9751 7.82938C69.7007 7.61682 69.3627 7.50286 69.0156 7.50589C68.2782 7.50589 67.9095 7.90659 67.9095 8.70799Z" fill="#1D1D1B"/>
<path d="M77.13 13.1367H71.576C71.6059 13.4194 71.6916 13.6934 71.828 13.9427C71.9645 14.1921 72.149 14.412 72.371 14.5896C72.8506 14.9647 73.4471 15.1588 74.0556 15.1379C74.878 15.1379 75.5368 14.8638 76.0321 14.3155L76.7174 15.116C76.4038 15.4788 76.0075 15.7608 75.5619 15.9384C75.0036 16.1503 74.4078 16.2452 73.8112 16.2174C73.2147 16.1896 72.6303 16.0396 72.0941 15.7766C71.5507 15.4946 71.1001 15.0621 70.7961 14.5307C70.4857 13.9794 70.3277 13.3553 70.3383 12.7227C70.329 12.0958 70.4825 11.4771 70.7837 10.9271C71.0709 10.4051 71.4982 9.97357 72.0174 9.68118C72.5553 9.37961 73.1635 9.2259 73.7801 9.2357C74.3911 9.22639 74.9936 9.38067 75.5249 9.68255C76.0335 9.97775 76.4495 10.4093 76.7257 10.9285C77.0214 11.4939 77.1703 12.1245 77.1588 12.7625C77.156 12.8571 77.1465 12.9818 77.13 13.1367ZM72.2805 10.8284C71.8768 11.1974 71.6256 11.7038 71.576 12.2485H75.9622C75.913 11.7049 75.6639 11.1989 75.2631 10.8284C74.8462 10.4759 74.3178 10.2824 73.7718 10.2824C73.2258 10.2824 72.6975 10.4759 72.2805 10.8284Z" fill="#1D1D1B"/>
<path d="M81.0173 9.54685C81.499 9.32735 82.0247 9.22137 82.5539 9.23707V10.4378C82.4596 10.4284 82.3649 10.4242 82.2701 10.4255C81.5985 10.4255 81.0712 10.6256 80.6883 11.0258C80.3055 11.4261 80.1136 11.9963 80.1126 12.7364V16.1467H78.879V9.3015H80.0674V10.4515C80.2802 10.0569 80.6128 9.74011 81.0173 9.54685Z" fill="#1D1D1B"/>
<path d="M83.316 16.0165C83.2525 15.9547 83.2024 15.8804 83.1689 15.7983C83.1354 15.7162 83.1192 15.6281 83.1213 15.5395C83.1193 15.4423 83.1372 15.3456 83.174 15.2555C83.2108 15.1655 83.2656 15.0839 83.3352 15.0159C83.4012 14.9477 83.4805 14.8936 83.5682 14.8571C83.6559 14.8205 83.7501 14.8023 83.8451 14.8035C83.9328 14.801 84.0201 14.8169 84.1013 14.8502C84.1825 14.8835 84.2558 14.9334 84.3166 14.9967C84.3781 15.06 84.4264 15.1348 84.4587 15.217C84.4909 15.2991 84.5065 15.3869 84.5044 15.4751C84.5064 15.5721 84.4885 15.6686 84.4517 15.7584C84.4149 15.8482 84.3601 15.9296 84.2906 15.9973C84.2265 16.0649 84.1493 16.1187 84.0638 16.1555C83.9782 16.1922 83.8861 16.2112 83.793 16.2111C83.7044 16.2133 83.6163 16.1971 83.5342 16.1636C83.4521 16.1301 83.3778 16.08 83.316 16.0165Z" fill="#1D1D1B"/>
<path d="M87.5514 15.8561C87.094 15.6366 86.7123 15.2859 86.4549 14.8487C86.1958 14.3858 86.066 13.8616 86.0793 13.3313C86.0678 12.6107 86.241 11.8991 86.5823 11.2643C86.9087 10.6631 87.3962 10.1647 87.99 9.8251C88.6112 9.47103 89.3161 9.29021 90.031 9.3015C90.591 9.28629 91.1466 9.40371 91.6525 9.64417C92.0981 9.86674 92.4649 10.2202 92.7039 10.6571L91.9294 11.1094C91.542 10.4378 90.8831 10.102 89.9529 10.102C89.422 10.095 88.8997 10.2363 88.4447 10.5099C87.9897 10.7835 87.6201 11.1787 87.3773 11.6509C87.1168 12.1594 86.9859 12.7244 86.9963 13.2957C86.9963 13.9591 87.1923 14.4758 87.5843 14.8459C87.9763 15.216 88.5338 15.3988 89.2566 15.3942C89.6766 15.3984 90.0926 15.3124 90.4765 15.142C90.8418 14.982 91.1599 14.7309 91.4003 14.4128L92.0583 14.9172C91.7443 15.3323 91.3283 15.6591 90.8507 15.8657C90.3372 16.0967 89.7798 16.2136 89.2168 16.2084C88.6419 16.222 88.0716 16.1014 87.5514 15.8561Z" fill="#1D1D1B"/>
<path d="M94.6927 15.8561C94.2428 15.6329 93.8683 15.2826 93.6153 14.8487C93.3538 14.3865 93.2221 13.8622 93.2343 13.3313C93.2228 12.6107 93.396 11.8991 93.7373 11.2643C94.0623 10.6644 94.5472 10.1662 95.1382 9.8251C95.7527 9.47179 96.4512 9.29089 97.16 9.3015C98.1066 9.3015 98.8578 9.55964 99.4134 10.0759C99.969 10.5922 100.247 11.2899 100.247 12.169C100.258 12.8915 100.084 13.6048 99.7423 14.2415C99.4192 14.8445 98.934 15.3454 98.3415 15.6875C97.7275 16.0409 97.0294 16.2218 96.3211 16.2111C95.7579 16.2232 95.1998 16.1015 94.6927 15.8561ZM97.896 14.9899C98.3461 14.7167 98.7107 14.3231 98.9487 13.8536C99.2071 13.3482 99.3379 12.7872 99.3297 12.2197C99.3297 11.5572 99.1337 11.0386 98.7417 10.664C98.3497 10.2893 97.8014 10.102 97.0969 10.102C96.5657 10.0947 96.0431 10.2372 95.5891 10.5132C95.1406 10.7907 94.7769 11.1862 94.5378 11.6563C94.2758 12.1626 94.1431 12.7257 94.1513 13.2957C94.1513 13.9591 94.3468 14.4758 94.7379 14.8459C95.129 15.216 95.6773 15.3988 96.3828 15.3942C96.915 15.403 97.4391 15.2629 97.896 14.9899Z" fill="#1D1D1B"/>
<path d="M112.831 9.87581C113.25 10.2596 113.458 10.7955 113.457 11.4836C113.45 11.753 113.42 12.0212 113.367 12.2855L112.593 16.1467H111.676L112.45 12.2718C112.495 12.0637 112.517 11.8514 112.516 11.6385C112.516 11.1579 112.374 10.7855 112.09 10.5214C111.805 10.2573 111.388 10.1262 110.837 10.128C110.214 10.1056 109.604 10.3096 109.119 10.7023C108.662 11.0861 108.357 11.6522 108.202 12.4006L107.452 16.1467H106.535L107.311 12.2718C107.35 12.0675 107.372 11.8602 107.376 11.6522C107.376 11.1615 107.239 10.7846 106.955 10.5214C106.671 10.2582 106.256 10.128 105.697 10.128C105.065 10.1048 104.447 10.319 103.965 10.7284C103.509 11.1286 103.199 11.7226 103.036 12.5103L102.312 16.1522H101.395L102.739 9.35906H103.624L103.405 10.4433C104.024 9.68666 104.881 9.30789 105.975 9.30698C106.473 9.28989 106.967 9.41034 107.402 9.65513C107.78 9.88307 108.062 10.2413 108.195 10.6626C108.516 10.2277 108.94 9.87959 109.429 9.64965C109.941 9.41541 110.5 9.29834 111.063 9.30698C111.824 9.30332 112.413 9.49293 112.831 9.87581Z" fill="#1D1D1B"/>
<path d="M5.63901 9.20554L10.276 6.52859L14.8898 9.19184L10.2527 11.8688L5.63901 9.20554Z" fill="#469FF9"/>
<path d="M11.3068 5.93371L15.9452 3.25539L20.559 5.92001L15.9206 8.59696L11.3068 5.93371Z" fill="#F87171"/>
<path d="M0 5.95016L4.63841 3.27321L9.25078 5.93646L4.61374 8.61341L0 5.95016Z" fill="#AE46F9"/>
<path d="M5.66779 2.67833L10.3062 0L14.9199 2.66325L10.2815 5.34158L5.66779 2.67833Z" fill="#FDE68A"/>
<path d="M20.5603 5.92001V11.8688L15.9233 14.5471V8.59696L20.5603 5.92001Z" fill="#F87171"/>
<path d="M14.8925 9.19184V15.142L10.2541 17.8203V11.8688L14.8925 9.19184Z" fill="#469FF9"/>
<path d="M20.5603 13.0997V19.0498L15.9233 21.7268V15.7766L20.5603 13.0997Z" fill="#F87171"/>
<path d="M14.8925 16.3715V22.3217L10.2541 25V19.0498L14.8925 16.3715Z" fill="#469FF9"/>
<path d="M0 5.92001V11.8688L4.61374 14.5471V8.59696L0 5.92001Z" fill="#AE46F9"/>
<path d="M5.64038 9.19184V15.142L10.2541 17.8203V11.8688L5.64038 9.19184Z" fill="#469FF9"/>
<path d="M0 13.0997V19.0498L4.61374 21.7268V15.7766L0 13.0997Z" fill="#AE46F9"/>
<path d="M5.64038 16.3715V22.3217L10.2541 25V19.0498L5.64038 16.3715Z" fill="#469FF9"/>
</svg>
