<svg width="42" height="43" viewBox="0 0 42 43" fill="none" xmlns="http://www.w3.org/2000/svg">
<g filter="url(#filter0_dd_710_860)">
<path d="M1 3C1 1.89543 1.89543 1 3 1H39C40.1046 1 41 1.89543 41 3V39C41 40.1046 40.1046 41 39 41H3C1.89543 41 1 40.1046 1 39V3Z" fill="white"/>
<path d="M2 3C2 2.44772 2.44772 2 3 2H39C39.5523 2 40 2.44772 40 3V39C40 39.5523 39.5523 40 39 40H3C2.44772 40 2 39.5523 2 39V3Z" fill="white"/>
<path fill-rule="evenodd" clip-rule="evenodd" d="M29.208 21.1943C29.208 20.588 29.1536 20.0051 29.0525 19.4454H21V22.7527H25.6015C25.4032 23.8215 24.8009 24.727 23.8953 25.3333V27.4785H26.6585C28.2753 25.9901 29.208 23.7982 29.208 21.1943Z" fill="#4285F4"/>
<path fill-rule="evenodd" clip-rule="evenodd" d="M21 29.5499C23.3085 29.5499 25.2439 28.7843 26.6585 27.4785L23.8953 25.3332C23.1297 25.8462 22.1503 26.1494 21 26.1494C18.7731 26.1494 16.8882 24.6454 16.2159 22.6245H13.3594V24.8397C14.7662 27.634 17.6577 29.5499 21 29.5499Z" fill="#34A853"/>
<path fill-rule="evenodd" clip-rule="evenodd" d="M16.2158 22.6245C16.0448 22.1115 15.9477 21.5635 15.9477 21C15.9477 20.4365 16.0448 19.8885 16.2158 19.3755V17.1603H13.3594C12.7803 18.3145 12.45 19.6203 12.45 21C12.45 22.3797 12.7803 23.6855 13.3594 24.8397L16.2158 22.6245Z" fill="#FBBC05"/>
<path fill-rule="evenodd" clip-rule="evenodd" d="M21 15.8505C22.2553 15.8505 23.3823 16.2819 24.2684 17.1291L26.7207 14.6768C25.24 13.2972 23.3046 12.45 21 12.45C17.6577 12.45 14.7662 14.3659 13.3594 17.1602L16.2159 19.3755C16.8882 17.3545 18.7731 15.8505 21 15.8505Z" fill="#EA4335"/>
</g>
<defs>
<filter id="filter0_dd_710_860" x="0" y="0" width="42" height="43" filterUnits="userSpaceOnUse" color-interpolation-filters="sRGB">
<feFlood flood-opacity="0" result="BackgroundImageFix"/>
<feColorMatrix in="SourceAlpha" type="matrix" values="0 0 0 0 0 0 0 0 0 0 0 0 0 0 0 0 0 0 127 0" result="hardAlpha"/>
<feOffset dy="1"/>
<feGaussianBlur stdDeviation="0.5"/>
<feColorMatrix type="matrix" values="0 0 0 0 0 0 0 0 0 0 0 0 0 0 0 0 0 0 0.168 0"/>
<feBlend mode="normal" in2="BackgroundImageFix" result="effect1_dropShadow_710_860"/>
<feColorMatrix in="SourceAlpha" type="matrix" values="0 0 0 0 0 0 0 0 0 0 0 0 0 0 0 0 0 0 127 0" result="hardAlpha"/>
<feOffset/>
<feGaussianBlur stdDeviation="0.5"/>
<feColorMatrix type="matrix" values="0 0 0 0 0 0 0 0 0 0 0 0 0 0 0 0 0 0 0.084 0"/>
<feBlend mode="normal" in2="effect1_dropShadow_710_860" result="effect2_dropShadow_710_860"/>
<feBlend mode="normal" in="SourceGraphic" in2="effect2_dropShadow_710_860" result="shape"/>
</filter>
</defs>
</svg>
