<svg width="23" height="23" viewBox="0 0 23 23" fill="none" xmlns="http://www.w3.org/2000/svg">
<path fill-rule="evenodd" clip-rule="evenodd" d="M0.105713 8.43729C0.326442 7.51799 0.656985 6.64194 1.08255 5.82407C2.29494 7.03401 4.25038 7.03009 5.45795 5.81231C6.66942 4.5906 6.66942 2.60981 5.45795 1.3881C5.42246 1.3523 5.38631 1.31755 5.34956 1.28386C6.19072 0.778684 7.10199 0.379841 8.06512 0.105713C8.06115 0.170485 8.05914 0.235791 8.05914 0.301571C8.05914 2.02933 9.44802 3.42996 11.1613 3.42996C12.8746 3.42996 14.2635 2.02933 14.2635 0.301571C14.2635 0.235805 14.2615 0.170513 14.2575 0.105754C15.2206 0.379876 16.1318 0.778695 16.9729 1.28383C16.9362 1.31749 16.9001 1.35219 16.8646 1.38794C15.6531 2.60965 15.6531 4.59044 16.8646 5.81215C18.0721 7.02989 20.0275 7.03385 21.2399 5.82403C21.6655 6.64192 21.996 7.51798 22.2168 8.4373C20.5555 8.49694 19.227 9.87384 19.227 11.5637C19.227 13.1752 20.4352 14.5021 21.988 14.6734C21.722 15.5044 21.3646 16.2939 20.9276 17.03C19.712 16.102 17.9732 16.197 16.8646 17.3149C15.7944 18.3941 15.6696 20.0657 16.4901 21.283C15.7699 21.6689 15.0037 21.979 14.2019 22.2027C13.9156 20.7734 12.663 19.6973 11.1613 19.6973C9.65955 19.6973 8.40703 20.7735 8.12065 22.2028C7.31891 21.979 6.55272 21.669 5.83254 21.2832C6.65295 20.0658 6.5281 18.3943 5.45798 17.3152C4.34943 16.1972 2.61063 16.1023 1.39499 17.0302C0.957965 16.2941 0.600458 15.5045 0.334435 14.6734C1.8873 14.5022 3.09565 13.1752 3.09565 11.5637C3.09565 9.87379 1.767 8.49686 0.105713 8.43729ZM11.1612 17.4778C14.3595 17.4778 16.9522 14.8851 16.9522 11.6869C16.9522 8.48861 14.3595 5.89591 11.1612 5.89591C7.96293 5.89591 5.37023 8.48861 5.37023 11.6869C5.37023 14.8851 7.96293 17.4778 11.1612 17.4778Z" fill="#5550F2"/>
</svg>
