<svg width="32" height="33" viewBox="0 0 32 33" fill="none" xmlns="http://www.w3.org/2000/svg">
<path d="M16.0394 7.20947C17.8711 7.20947 19.3559 8.69433 19.3559 10.526V11.6315C19.3559 13.4631 17.8711 14.948 16.0394 14.948C14.2078 14.948 12.7229 13.4631 12.7229 11.6315V10.526C12.7229 8.69433 14.2078 7.20947 16.0394 7.20947ZM23.778 22.6865C23.778 22.4182 23.778 22.1499 23.778 21.8815C23.778 18.3589 19.7027 16.0535 16.0394 16.0535C12.3761 16.0535 8.3009 18.3589 8.3009 21.8815V22.6865C8.3009 23.2971 8.79585 23.792 9.40641 23.792H22.6725C23.283 23.792 23.778 23.2971 23.778 22.6865Z" stroke="#469FF9" stroke-width="1.45097" stroke-linecap="round" stroke-linejoin="round"/>
<circle cx="16.0393" cy="16.053" r="15.2352" stroke="#469FF9" stroke-width="1.45097"/>
</svg>
