<svg width="295" height="62" viewBox="0 0 295 62" fill="none" xmlns="http://www.w3.org/2000/svg">
<path d="M73.6864 20.3959H65.6905V17.6084H84.9598V20.3959H76.9921V40.0439H73.7006L73.6864 20.3959Z" fill="white"/>
<path d="M104.165 40.0439L99.1398 33.1569C98.5182 33.2011 98.0308 33.2215 97.6776 33.2215H91.9209V40.0439H88.5904V17.6084H97.6776C100.694 17.6084 103.067 18.303 104.798 19.6922C106.528 21.0814 107.393 22.9918 107.393 25.4234C107.44 26.9942 106.975 28.5396 106.062 29.8425C105.125 31.095 103.796 32.0254 102.269 32.4974L107.793 40.0269L104.165 40.0439ZM102.4 29.1865C103.509 28.3095 104.063 27.063 104.063 25.4472C104.063 23.8314 103.509 22.585 102.4 21.708C101.291 20.8332 99.6825 20.3959 97.5752 20.3959H91.9244V30.4986H97.5752C99.6848 30.4986 101.3 30.0612 102.421 29.1865H102.4Z" fill="white"/>
<path d="M124.18 24.6382C125.479 25.7894 126.128 27.5083 126.126 29.7949V40.0438H123.099V37.8003C122.545 38.6088 121.751 39.2387 120.821 39.6087C119.709 40.0493 118.513 40.2623 117.311 40.2342C115.333 40.2342 113.752 39.781 112.567 38.8745C112.017 38.4359 111.573 37.8873 111.266 37.2669C110.958 36.6465 110.795 35.969 110.787 35.2816C110.779 34.5942 110.926 33.9134 111.219 33.2864C111.512 32.6595 111.943 32.1014 112.483 31.651C113.615 30.7445 115.413 30.2912 117.876 30.2912H122.933V29.6658C122.933 28.3446 122.534 27.3248 121.736 26.6064C120.938 25.888 119.76 25.5356 118.204 25.5492C117.158 25.5545 116.121 25.728 115.135 26.0625C114.215 26.353 113.358 26.8035 112.606 27.3916L111.285 25.0869C112.254 24.346 113.362 23.7919 114.549 23.4552C115.854 23.0755 117.211 22.8865 118.575 22.8943C121.012 22.9034 122.88 23.4847 124.18 24.6382ZM121.001 37.0797C121.883 36.5634 122.563 35.7804 122.933 34.8531V32.4736H118.006C115.301 32.4736 113.948 33.3495 113.948 35.1013C113.934 35.493 114.021 35.882 114.201 36.2337C114.381 36.5854 114.648 36.8888 114.98 37.117C115.669 37.6111 116.623 37.857 117.84 37.8547C118.949 37.8862 120.044 37.6177 121.001 37.0797V37.0797Z" fill="white"/>
<path d="M146.808 24.781C148.129 26.0319 148.789 27.863 148.789 30.2743V40.0439H145.593V30.6278C145.593 28.9825 145.182 27.744 144.36 26.9123C143.538 26.0806 142.361 25.6637 140.828 25.6614C139.098 25.6614 137.733 26.1475 136.735 27.1197C135.737 28.0919 135.238 29.4845 135.238 31.2974V40.0439H132.041V23.0677H135.103V25.6308C135.765 24.7394 136.67 24.0408 137.717 23.6116C138.9 23.1262 140.175 22.8864 141.461 22.908C143.704 22.908 145.487 23.5323 146.808 24.781Z" fill="white"/>
<path d="M155.609 39.6733C154.481 39.395 153.419 38.9115 152.48 38.249L153.811 35.8151C154.673 36.3889 155.628 36.8218 156.637 37.0967C157.727 37.4137 158.86 37.5752 159.999 37.576C162.791 37.576 164.189 36.8077 164.191 35.2712C164.201 35.0402 164.155 34.8101 164.057 34.599C163.959 34.3879 163.811 34.2014 163.626 34.0543C163.211 33.7378 162.729 33.5137 162.213 33.3982C161.648 33.26 160.844 33.1047 159.801 32.9325C158.625 32.7716 157.463 32.525 156.326 32.1949C155.441 31.927 154.644 31.442 154.013 30.7875C153.37 30.1258 153.048 29.1967 153.048 28.0001C153.033 27.2721 153.207 26.552 153.556 25.9058C153.904 25.2596 154.416 24.708 155.044 24.3017C156.374 23.3748 158.16 22.9102 160.402 22.9079C161.592 22.9098 162.777 23.049 163.933 23.3227C164.955 23.5413 165.932 23.9203 166.826 24.4444L165.462 26.8783C163.938 25.9605 162.167 25.4936 160.37 25.5356C159.017 25.5356 157.986 25.7464 157.276 26.1747C156.956 26.3394 156.689 26.5844 156.502 26.8837C156.316 27.1829 156.217 27.5253 156.216 27.8743C156.204 28.1222 156.252 28.3693 156.355 28.5968C156.457 28.8243 156.613 29.026 156.81 29.1865C157.244 29.5231 157.751 29.7633 158.293 29.8901C158.879 30.0397 159.703 30.2108 160.765 30.4034C161.935 30.5818 163.091 30.8327 164.226 31.1547C165.085 31.4123 165.859 31.8809 166.473 32.5144C167.092 33.158 167.401 34.0554 167.401 35.2066C167.416 35.9356 167.236 36.6559 166.878 37.2983C166.52 37.9407 165.996 38.4836 165.357 38.8745C163.993 39.781 162.136 40.2342 159.783 40.2342C158.371 40.2404 156.965 40.0515 155.609 39.6733V39.6733Z" fill="white"/>
<path d="M174.977 21.5958V23.0677H180.119V25.5968H175.041V40.0439H171.862V25.5968H168.853V23.0677H171.848V21.5618C171.848 19.8758 172.358 18.541 173.377 17.5574C174.397 16.5739 175.828 16.0833 177.672 16.0855C178.346 16.081 179.017 16.1668 179.667 16.3405C180.241 16.491 180.782 16.7409 181.263 17.0781L180.299 19.4169C179.592 18.8897 178.721 18.6071 177.827 18.6146C175.927 18.6146 174.977 19.6083 174.977 21.5958Z" fill="white"/>
<path d="M198.735 32.579H184.424C184.502 33.2801 184.722 33.9595 185.074 34.578C185.425 35.1965 185.901 35.7418 186.473 36.1823C187.709 37.1124 189.246 37.5938 190.813 37.542C192.932 37.542 194.63 36.8621 195.906 35.5024L197.672 37.4876C196.864 38.3874 195.843 39.0869 194.695 39.5272C193.256 40.0526 191.721 40.2882 190.184 40.2192C188.647 40.1502 187.141 39.7781 185.759 39.1261C184.359 38.4267 183.198 37.3539 182.415 36.0361C181.615 34.6688 181.208 33.1212 181.235 31.5524C181.212 29.9975 181.607 28.4632 182.383 27.0993C183.123 25.8046 184.224 24.7345 185.562 24.0093C186.948 23.2614 188.515 22.8803 190.104 22.9046C191.678 22.8815 193.23 23.2641 194.599 24.0127C195.91 24.7448 196.982 25.8151 197.693 27.1027C198.455 28.5048 198.839 30.0688 198.809 31.651C198.802 31.8855 198.778 32.1949 198.735 32.579ZM186.24 26.8545C185.2 27.7695 184.552 29.0255 184.424 30.3762H195.726C195.599 29.0282 194.958 27.7733 193.925 26.8545C192.851 25.9802 191.489 25.5005 190.082 25.5005C188.675 25.5005 187.314 25.9802 186.24 26.8545V26.8545Z" fill="white"/>
<path d="M208.751 23.6762C209.992 23.1318 211.347 22.869 212.71 22.908V25.8857C212.467 25.8623 212.223 25.8521 211.979 25.8552C210.249 25.8552 208.889 26.3515 207.9 27.3441C206.911 28.3366 206.418 29.7508 206.42 31.5864V40.0439H203.242V23.0677H206.304V25.9197C206.851 24.9404 207.708 24.1545 208.751 23.6762Z" fill="white"/>
<path d="M214.674 39.7209C214.511 39.5671 214.382 39.3828 214.296 39.1793C214.21 38.9759 214.168 38.7576 214.172 38.538C214.167 38.2968 214.213 38.0571 214.308 37.8337C214.403 37.6104 214.544 37.4081 214.723 37.2394C214.893 37.0702 215.098 36.9361 215.324 36.8455C215.55 36.7549 215.792 36.7097 216.037 36.7125C216.263 36.7065 216.488 36.746 216.697 36.8285C216.906 36.911 217.095 37.0348 217.252 37.1918C217.411 37.3487 217.535 37.5344 217.618 37.7381C217.701 37.9418 217.741 38.1594 217.736 38.3782C217.741 38.6189 217.695 38.858 217.6 39.0808C217.505 39.3036 217.364 39.5053 217.185 39.6733C217.02 39.8409 216.821 39.9744 216.601 40.0655C216.38 40.1567 216.143 40.2037 215.903 40.2036C215.674 40.2089 215.447 40.1687 215.236 40.0857C215.025 40.0026 214.833 39.8784 214.674 39.7209V39.7209Z" fill="white"/>
<path d="M225.587 39.3232C224.408 38.7787 223.425 37.909 222.762 36.8247C222.094 35.6767 221.76 34.3769 221.794 33.0617C221.764 31.2745 222.21 29.5097 223.09 27.9355C223.931 26.4445 225.187 25.2086 226.717 24.3663C228.318 23.4882 230.134 23.0397 231.976 23.0677C233.419 23.031 234.85 23.3222 236.154 23.9175C237.302 24.4695 238.247 25.3461 238.863 26.4296L236.867 27.5514C235.869 25.8857 234.173 25.0529 231.778 25.0529C230.41 25.0362 229.064 25.3867 227.891 26.0652C226.718 26.7437 225.765 27.7233 225.138 28.8941C224.467 30.1552 224.13 31.5565 224.157 32.9733C224.157 34.6186 224.662 35.9001 225.672 36.8179C226.682 37.7357 228.118 38.189 229.98 38.1776C231.063 38.188 232.135 37.9747 233.124 37.5522C234.065 37.1553 234.885 36.5327 235.504 35.7437L237.199 36.9947C236.39 38.0241 235.319 38.8345 234.088 39.347C232.766 39.9194 231.331 40.2093 229.882 40.1968C228.399 40.231 226.928 39.9319 225.587 39.3232V39.3232Z" fill="white"/>
<path d="M243.987 39.3232C242.828 38.7695 241.863 37.9008 241.211 36.8247C240.537 35.6786 240.198 34.3783 240.23 33.0617C240.2 31.2745 240.646 29.5097 241.526 27.9355C242.363 26.4476 243.613 25.2122 245.135 24.3662C246.718 23.4896 248.518 23.0409 250.345 23.0677C252.784 23.0677 254.719 23.7079 256.151 24.9883C257.582 26.2687 258.298 27.999 258.298 30.1791C258.326 31.9708 257.879 33.7398 256.998 35.3188C256.166 36.8144 254.916 38.0565 253.389 38.9051C251.807 39.7813 250.008 40.23 248.183 40.2036C246.732 40.2335 245.294 39.9317 243.987 39.3232ZM252.241 37.1748C253.401 36.4984 254.341 35.522 254.953 34.3568C255.619 33.1034 255.956 31.7123 255.935 30.3048C255.935 28.6618 255.43 27.3758 254.42 26.4466C253.41 25.5175 251.997 25.0529 250.182 25.0529C248.813 25.0352 247.467 25.3886 246.297 26.0727C245.141 26.761 244.204 27.7417 243.588 28.9077C242.913 30.1632 242.571 31.5598 242.592 32.9733C242.592 34.6186 243.096 35.9001 244.104 36.8179C245.112 37.7357 246.524 38.189 248.342 38.1776C249.713 38.1994 251.064 37.8521 252.241 37.1748V37.1748Z" fill="white"/>
<path d="M290.723 24.492C291.801 25.4438 292.339 26.773 292.337 28.4794C292.318 29.1474 292.24 29.8126 292.104 30.468L290.109 40.0439H287.746L289.745 30.434C289.858 29.9177 289.913 29.3912 289.911 28.8635C289.911 27.6715 289.545 26.748 288.812 26.0931C288.08 25.4382 287.004 25.113 285.584 25.1175C283.979 25.0619 282.407 25.5679 281.159 26.5418C279.982 27.4936 279.194 28.8975 278.796 30.7535L276.864 40.0439H274.502L276.501 30.434C276.601 29.9273 276.657 29.4133 276.667 28.8975C276.667 27.6806 276.305 26.7458 275.582 26.0931C274.86 25.4404 273.779 25.1152 272.34 25.1175C270.712 25.06 269.121 25.5911 267.88 26.6064C266.702 27.599 265.904 29.072 265.485 31.0255L263.62 40.0575H261.258L264.719 23.2105H267L266.435 25.8993C268.032 24.0229 270.239 23.0836 273.057 23.0813C274.342 23.0389 275.614 23.3376 276.734 23.9447C277.709 24.51 278.436 25.3985 278.779 26.4432C279.605 25.3647 280.697 24.5014 281.957 23.9311C283.277 23.3502 284.716 23.0599 286.167 23.0813C288.128 23.0722 289.647 23.5425 290.723 24.492Z" fill="white"/>
<path d="M14.5296 22.8298L26.4775 16.1909L38.3654 22.7958L26.4175 29.4346L14.5296 22.8298Z" fill="#469FF9"/>
<path d="M29.1334 14.7156L41.0849 8.07336L52.9727 14.6816L41.0213 21.3205L29.1334 14.7156Z" fill="#F87171"/>
<path d="M0 14.7564L11.9514 8.11755L23.8358 14.7224L11.8879 21.3613L0 14.7564Z" fill="#AE46F9"/>
<path d="M14.6038 6.64225L26.5552 0L38.4431 6.60486L26.4917 13.2471L14.6038 6.64225Z" fill="#FDE68A"/>
<path d="M52.9762 14.6816V29.4346L41.0283 36.0769V21.3205L52.9762 14.6816Z" fill="#F87171"/>
<path d="M38.3724 22.7958V37.5522L26.421 44.1944V29.4346L38.3724 22.7958Z" fill="#469FF9"/>
<path d="M52.9762 32.4872V47.2436L41.0283 53.8824V39.126L52.9762 32.4872Z" fill="#F87171"/>
<path d="M38.3724 40.6013V55.3578L26.421 62V47.2436L38.3724 40.6013Z" fill="#469FF9"/>
<path d="M0 14.6816V29.4346L11.8879 36.0769V21.3205L0 14.6816Z" fill="#AE46F9"/>
<path d="M14.5331 22.7958V37.5522L26.421 44.1944V29.4346L14.5331 22.7958Z" fill="#469FF9"/>
<path d="M0 32.4872V47.2436L11.8879 53.8824V39.126L0 32.4872Z" fill="#AE46F9"/>
<path d="M14.5331 40.6013V55.3578L26.421 62V47.2436L14.5331 40.6013Z" fill="#469FF9"/>
</svg>
