<svg width="72" height="81" viewBox="0 0 72 81" fill="none" xmlns="http://www.w3.org/2000/svg">
<g opacity="0.1" clip-path="url(#clip0_1225_3838)">
<path d="M24.8136 28.7424L39.3238 23.8013L50.8862 33.7414L36.3763 38.6813L24.8136 28.7424Z" fill="#469FF9"/>
<path d="M42.5503 22.7015L57.0591 17.7613L68.6227 27.7016L54.1127 32.6415L42.5503 22.7015Z" fill="#F87171"/>
<path d="M10.6823 16.5905L25.1925 11.6495L36.755 21.5895L22.2459 26.5308L10.6823 16.5905Z" fill="#AE46F9"/>
<path d="M28.4166 10.5537L42.9257 5.61238L54.4893 15.5527L39.9793 20.4926L28.4166 10.5537Z" fill="#FDE68A"/>
<path d="M68.6268 27.7044L65.4199 44.2953L50.9097 49.2364L54.1168 32.6443L68.6268 27.7044Z" fill="#F87171"/>
<path d="M50.8932 33.7427L47.6861 50.3348L33.1762 55.2747L36.3832 38.6827L50.8932 33.7427Z" fill="#469FF9"/>
<path d="M64.7575 47.7227L61.5504 64.3148L47.0404 69.2547L50.2475 52.6627L64.7575 47.7227Z" fill="#F87171"/>
<path d="M47.0235 53.763L43.8164 70.355L29.3065 75.295L32.5133 58.7041L47.0235 53.763Z" fill="#469FF9"/>
<path d="M10.6983 16.5076L7.49147 33.0985L19.0486 43.0781L22.2557 26.486L10.6983 16.5076Z" fill="#AE46F9"/>
<path d="M24.8248 28.7041L21.6178 45.2961L33.1763 55.2748L36.3833 38.6828L24.8248 28.7041Z" fill="#469FF9"/>
<path d="M6.82904 36.5259L3.62199 53.1179L15.1794 63.0964L18.3864 46.5043L6.82904 36.5259Z" fill="#AE46F9"/>
<path d="M20.9552 48.7241L17.7482 65.3162L29.3067 75.2948L32.5135 58.7039L20.9552 48.7241Z" fill="#469FF9"/>
</g>
<defs>
<clipPath id="clip0_1225_3838">
<rect width="59" height="71" fill="white" transform="translate(13.889) rotate(10.9397)"/>
</clipPath>
</defs>
</svg>
